<svg version="1.1" id="Layer_1" xmlns="http://www.w3.org/2000/svg" xmlns:xlink="http://www.w3.org/1999/xlink" x="0px" y="0px"
	 width="100%" viewBox="0 0 1818 602" enable-background="new 0 0 1818 602" xml:space="preserve">
<path fill="#FFFFFF" opacity="1.000000" stroke="none" 
	d="
M1202.000000,603.000000 
	C801.333313,603.000000 401.166656,603.000000 1.000000,603.000000 
	C1.000000,402.333344 1.000000,201.666672 1.000000,1.000000 
	C607.000000,1.000000 1213.000000,1.000000 1819.000000,1.000000 
	C1819.000000,201.666672 1819.000000,402.333344 1819.000000,603.000000 
	C1613.500000,603.000000 1408.000000,603.000000 1202.000000,603.000000 
M601.974548,368.917297 
	C601.974548,368.917297 601.677734,368.685699 602.533386,368.891663 
	C603.690918,368.931091 604.848511,368.970490 606.575989,369.248474 
	C607.406799,369.096588 608.237549,368.944733 609.776855,368.654785 
	C610.493896,368.701965 611.210999,368.749115 612.184753,369.287964 
	C612.794556,369.009918 613.404419,368.731903 614.659607,368.060608 
	C616.106750,367.692017 617.553894,367.323425 618.980469,367.636200 
	C618.985046,368.090607 618.989624,368.545044 618.439697,369.499908 
	C618.296387,371.000336 618.153076,372.500763 618.005493,374.938354 
	C618.007751,397.291595 618.009949,419.644867 618.005249,442.835938 
	C618.576416,449.259186 620.766479,454.881683 626.239380,459.532318 
	C626.827087,460.021332 627.414795,460.510345 628.303528,461.616486 
	C632.626770,465.812500 637.746582,468.009674 643.825073,468.008270 
	C709.810242,467.993103 775.795471,468.035950 841.780396,467.914124 
	C846.122803,467.906067 850.570435,467.082520 854.782776,465.947174 
	C864.810181,463.244446 871.997437,453.491852 871.997986,443.199036 
	C872.001648,372.214996 871.972107,301.230927 872.042969,230.246948 
	C872.050049,223.152618 869.248535,217.429581 864.766907,212.271881 
	C858.201050,204.715637 849.158875,204.088440 840.216736,204.070572 
	C776.731262,203.943756 713.245422,203.983078 649.759766,204.047501 
	C645.470337,204.051849 640.986877,204.043686 636.957092,205.252563 
	C633.995178,206.141052 631.627563,209.010376 628.477600,211.211319 
	C627.985107,211.475449 627.492554,211.739563 626.359070,212.085220 
	C625.907654,212.723694 625.456299,213.362167 624.787537,214.517426 
	C624.524231,215.010788 624.260864,215.504166 623.293030,216.110992 
	C621.532715,220.407928 619.772461,224.704865 618.006958,229.938904 
	C618.007874,249.958450 618.008850,269.977997 618.002136,290.847961 
	C618.014954,292.270844 618.027832,293.693695 617.730774,295.710876 
	C617.220398,296.128204 616.755493,296.623718 616.192932,296.951416 
	C602.162048,305.125336 593.048584,321.812317 597.400635,338.234741 
	C597.844788,339.910675 596.910583,342.504364 595.737305,343.967590 
	C587.443665,354.310760 577.022217,362.096802 564.713684,368.178253 
	C564.141541,368.780334 563.569397,369.382416 562.401062,370.337677 
	C560.123230,371.471985 557.845337,372.606262 554.798279,373.371460 
	C552.487671,372.998688 551.952942,371.953766 552.568787,369.538330 
	C553.710876,365.058838 554.249634,360.429535 555.191345,355.894135 
	C558.843201,338.307007 559.764893,320.578766 559.133240,302.627777 
	C558.477539,283.996063 556.559509,265.578125 550.986145,247.809494 
	C546.160583,232.424713 541.115173,216.985229 534.525269,202.306931 
	C524.981384,181.048965 511.765381,161.981873 496.177460,144.515549 
	C479.593170,125.932869 460.912842,110.100723 439.704254,96.986374 
	C418.245575,83.717369 395.520538,73.709984 371.091064,67.573242 
	C344.252899,60.831425 317.159760,57.442291 289.356476,59.850780 
	C266.621613,61.820217 244.516907,66.094345 222.950562,73.501770 
	C201.324768,80.929611 181.419632,91.648674 162.484390,104.317062 
	C159.895081,106.049400 157.233490,107.673676 154.071671,108.917686 
	C147.559784,98.906212 141.091324,88.866020 134.504623,78.904007 
	C132.911926,76.495140 132.468002,74.575699 133.906754,71.665779 
	C139.942764,59.457779 137.094284,46.714653 126.277222,38.170918 
	C118.233559,31.817738 109.092064,30.570301 99.521179,34.572968 
	C90.791809,38.223694 85.086548,44.807838 83.395660,54.039627 
	C79.729065,74.058197 95.797043,87.534920 111.586472,86.858826 
	C113.438095,86.779549 116.095871,88.215195 117.157272,89.778618 
	C124.516907,100.619087 131.552856,111.679306 138.322632,123.332382 
	C137.859451,123.810478 137.414261,124.307663 136.930481,124.763924 
	C115.090508,145.361374 96.764488,168.629639 82.855400,195.326279 
	C70.138527,219.734619 61.655758,245.554794 57.497700,272.689209 
	C55.921940,282.972229 56.045322,293.515656 55.249191,304.627625 
	C54.809566,306.734680 53.921886,308.858734 54.000877,310.946167 
	C54.660564,328.379089 55.070042,345.840546 56.500492,363.215546 
	C57.044460,369.822906 57.405846,377.473328 64.855560,382.142059 
	C68.306602,391.892487 71.571213,401.714874 75.295227,411.359894 
	C76.913559,415.551331 79.476387,419.378021 81.636665,423.731598 
	C81.636665,423.731598 81.772835,424.067230 81.721832,424.716370 
	C82.064041,425.235718 82.406258,425.755035 82.916809,427.043610 
	C83.187622,428.316132 83.458427,429.588684 83.414299,431.506165 
	C83.962662,432.982269 84.511024,434.458374 85.094398,436.710480 
	C91.382324,460.955109 103.844353,481.510193 121.651505,499.070770 
	C133.712921,510.965149 148.471268,517.027954 164.906708,521.105286 
	C165.638184,521.283997 166.369675,521.462646 167.718063,521.924805 
	C168.378342,522.069092 169.038635,522.213379 169.958221,522.984314 
	C183.766632,530.218750 197.243530,538.198059 211.456436,544.523682 
	C236.599472,555.713806 263.309540,561.294861 290.716644,562.900024 
	C321.840759,564.722900 352.490967,561.515259 382.307159,551.977844 
	C398.469116,546.808044 414.246887,540.707458 429.495483,531.849487 
	C434.466034,528.910706 439.583618,526.192444 444.380951,522.993958 
	C462.252289,511.078705 478.725922,497.585449 493.165985,481.517548 
	C509.588409,463.243744 523.428040,443.365295 534.085388,421.242340 
	C537.656738,413.828918 541.388550,406.492889 545.760071,398.857971 
	C547.495911,398.498260 549.231689,398.138580 551.224731,398.322388 
	C551.810608,397.872375 552.396484,397.422363 553.695190,396.745880 
	C561.743958,392.982086 569.877197,389.385742 577.808105,385.388092 
	C582.171143,383.188843 586.193787,380.314331 591.175232,377.843323 
	C591.742126,377.125275 592.309082,376.407257 593.161621,375.103638 
	C595.225952,373.645966 597.290283,372.188293 600.160645,370.838165 
	C600.673889,370.111877 601.187134,369.385559 601.974548,368.917297 
M1035.961304,389.529724 
	C1033.163818,386.273468 1030.366333,383.017212 1027.588623,379.783936 
	C1014.801453,389.091644 1007.104980,389.783417 999.731628,382.301910 
	C1000.817078,381.767303 1001.844727,381.258850 1002.874329,380.754425 
	C1045.987793,359.632996 1051.392944,300.856018 1012.528015,273.243195 
	C994.720459,260.591187 974.567688,258.224030 953.427185,262.023590 
	C924.332092,267.252838 903.582764,289.842499 901.390198,320.196045 
	C899.427246,347.370209 914.020813,372.617676 942.165955,382.704010 
	C950.290771,385.615692 956.714233,389.828369 962.714050,395.713013 
	C974.018860,406.800812 987.100342,414.586334 1003.449707,415.701965 
	C1019.554443,416.800934 1033.799438,413.129822 1045.109741,400.413025 
	C1042.168579,396.915802 1039.291382,393.494751 1035.961304,389.529724 
M1053.484131,294.499695 
	C1053.484131,324.598907 1053.484131,354.698120 1053.484131,384.686279 
	C1067.477295,384.686279 1080.873169,384.686279 1094.772217,384.686279 
	C1094.772217,374.433746 1094.772217,364.516815 1094.772217,354.994537 
	C1102.349365,352.717194 1107.398193,354.925842 1110.631714,361.662079 
	C1111.985107,364.481384 1114.090332,366.942261 1115.874878,369.551605 
	C1119.346924,374.628387 1121.792603,381.635895 1126.607910,384.219177 
	C1131.415527,386.798248 1138.602051,384.987000 1144.745972,385.020111 
	C1152.951904,385.064331 1161.158081,385.031067 1170.089111,385.031067 
	C1161.282959,372.035889 1153.016846,359.837494 1144.738037,347.620483 
	C1166.524170,335.041168 1169.812256,315.679077 1166.404907,299.085876 
	C1162.378052,279.475616 1146.102905,265.564545 1123.685547,264.200958 
	C1101.937378,262.878113 1080.077393,263.390717 1058.266113,263.116577 
	C1056.819580,263.098389 1055.371094,263.244568 1053.484131,263.335419 
	C1053.484131,273.567810 1053.484131,283.533752 1053.484131,294.499695 
M1599.161743,295.256042 
	C1584.203491,289.688324 1569.691040,290.748627 1556.019165,298.922302 
	C1539.872681,308.575439 1532.220581,327.544800 1536.123779,349.022797 
	C1543.153076,387.701599 1585.748169,393.235168 1605.458008,379.240417 
	C1608.498047,377.081818 1611.186401,374.428101 1614.659424,371.474335 
	C1614.659424,376.354950 1614.659424,380.579193 1614.659424,384.702393 
	C1620.243896,384.702393 1625.319336,384.702393 1630.377686,384.702393 
	C1630.377686,341.636566 1630.377686,298.904083 1630.377686,256.151978 
	C1624.807007,256.151978 1619.543701,256.151978 1613.941772,256.151978 
	C1613.941772,264.512848 1613.941650,272.639984 1613.941650,280.767120 
	C1613.941650,288.998657 1613.941772,297.230194 1613.941772,305.098175 
	C1609.069824,301.841125 1604.440308,298.746185 1599.161743,295.256042 
M1417.872070,327.413605 
	C1413.077637,348.720581 1421.501343,369.998779 1438.644287,379.884705 
	C1457.300415,390.643250 1478.229492,387.677490 1496.103882,371.320618 
	C1496.103882,376.154785 1496.103882,380.516144 1496.103882,384.716095 
	C1501.723877,384.716095 1506.794067,384.716095 1511.779785,384.716095 
	C1511.779785,341.673401 1511.779785,298.947388 1511.779785,256.130157 
	C1506.272217,256.130157 1501.017456,256.130157 1495.273193,256.130157 
	C1495.273193,264.450378 1495.273193,272.566254 1495.273193,280.682159 
	C1495.273193,288.855621 1495.273193,297.029053 1495.273193,305.032288 
	C1490.473145,301.744843 1486.523682,298.312683 1481.988525,296.059387 
	C1462.071411,286.163666 1426.075684,292.532440 1417.872070,327.413605 
M1282.596802,324.987671 
	C1277.802368,308.171631 1266.913208,297.308807 1249.975586,293.345947 
	C1233.532593,289.498810 1218.421265,292.448792 1205.546875,306.249786 
	C1205.546875,288.639404 1205.546875,272.407410 1205.546875,256.150787 
	C1199.811523,256.150787 1194.550659,256.150787 1189.292480,256.150787 
	C1189.292480,299.227905 1189.292480,342.070312 1189.292480,384.668640 
	C1194.718262,384.668640 1199.789673,384.668640 1205.355347,384.668640 
	C1205.355347,380.167969 1205.355347,376.031128 1205.355347,371.300812 
	C1222.848267,393.066864 1260.384521,389.774536 1275.632446,367.783997 
	C1284.553467,354.918304 1285.818237,340.701599 1282.596802,324.987671 
M1725.589844,334.151794 
	C1731.541748,320.559052 1737.493652,306.966309 1743.675781,292.847687 
	C1739.472168,292.847687 1736.118652,293.140472 1732.839233,292.773346 
	C1728.769043,292.317657 1726.749146,293.842224 1725.159668,297.630585 
	C1716.233765,318.903778 1707.039551,340.064362 1697.918823,361.255676 
	C1697.259155,362.788544 1696.455566,364.259491 1695.525146,366.153870 
	C1694.834473,364.662079 1694.399658,363.768799 1694.002808,362.859009 
	C1684.377563,340.801300 1674.780884,318.730988 1665.079468,296.706787 
	C1664.435303,295.244446 1663.081787,293.124390 1661.917847,293.029358 
	C1656.914185,292.620850 1651.857788,292.854919 1646.276733,292.854919 
	C1647.224609,295.193604 1647.798218,296.724152 1648.457031,298.217102 
	C1660.650513,325.854462 1672.877319,353.477203 1684.998169,381.146362 
	C1685.728760,382.814026 1686.361816,385.125305 1685.775879,386.651917 
	C1684.239990,390.654297 1682.242310,394.534271 1679.993652,398.195923 
	C1676.280518,404.242065 1670.446899,406.648621 1663.703979,405.241180 
	C1658.803711,404.218323 1654.182129,401.859894 1649.067261,399.959930 
	C1647.212524,403.228607 1644.949341,407.217316 1642.636108,411.294067 
	C1649.087402,417.241150 1656.656860,419.453278 1664.754761,419.859070 
	C1681.646484,420.705536 1691.589844,411.160614 1697.963989,396.808594 
	C1707.126099,376.178650 1716.136353,355.481201 1725.589844,334.151794 
M1346.463989,386.044861 
	C1358.510864,386.080963 1368.615967,381.567078 1377.489136,371.736816 
	C1377.489136,376.892792 1377.489136,380.796112 1377.489136,384.680939 
	C1383.043701,384.680939 1388.100830,384.680939 1392.938965,384.680939 
	C1392.938965,353.928619 1392.938965,323.523621 1392.938965,293.164978 
	C1387.390747,293.164978 1382.151123,293.164978 1376.715576,293.164978 
	C1376.715576,308.616272 1376.945923,323.763214 1376.592407,338.896576 
	C1376.466309,344.293304 1375.607178,349.886719 1373.888916,354.988342 
	C1370.191406,365.967163 1359.554077,371.700165 1345.765625,371.028961 
	C1334.670288,370.488861 1327.197998,364.698608 1324.525513,354.051941 
	C1323.605591,350.386780 1323.291016,346.491364 1323.256348,342.696014 
	C1323.117920,327.539185 1323.205078,312.380402 1323.186646,297.222321 
	C1323.184937,295.804077 1323.026733,294.386017 1322.944336,293.020599 
	C1317.337524,293.020599 1312.200928,293.020599 1306.715820,293.020599 
	C1306.715820,311.645569 1306.271729,330.120361 1306.826050,348.565186 
	C1307.549927,372.648315 1321.332153,385.619659 1346.463989,386.044861 
z"/>
<path fill="#62CAF2" opacity="1.000000" stroke="none" 
	d="
M55.394226,303.940369 
	C56.045322,293.515656 55.921940,282.972229 57.497700,272.689209 
	C61.655758,245.554794 70.138527,219.734619 82.855400,195.326279 
	C96.764488,168.629639 115.090508,145.361374 136.930481,124.763924 
	C137.414261,124.307663 137.859451,123.810478 138.770660,122.927673 
	C142.981049,119.868629 146.743439,117.214287 150.832153,114.565186 
	C151.355759,114.211014 151.552994,113.851601 151.852890,113.339600 
	C152.143326,113.013214 152.364807,112.916916 152.986755,112.923264 
	C153.813904,112.496414 154.274277,112.044441 154.699005,111.554062 
	C154.663376,111.515671 154.623871,111.418625 154.977737,111.574219 
	C156.574677,111.314957 157.827545,110.927170 159.059311,110.481094 
	C172.308823,105.682808 185.291672,99.854195 198.874542,96.351334 
	C213.073074,92.689705 227.817810,91.058769 242.378571,88.911743 
	C259.716003,86.355301 277.166077,87.319717 294.427551,89.282845 
	C313.723267,91.477341 332.551849,96.185600 350.909393,102.769615 
	C382.153900,113.975594 409.866547,131.038498 434.434479,153.137085 
	C450.800018,167.857727 464.985443,184.608536 476.755005,203.271454 
	C479.911438,208.276566 482.394989,213.706009 484.771423,219.061493 
	C478.096954,218.322128 471.863617,217.096497 465.575745,216.663101 
	C432.936279,214.413544 400.403473,216.007431 367.890106,219.337692 
	C331.466980,223.068405 295.277405,228.088226 259.776733,237.254150 
	C241.229431,242.042877 223.037476,247.866638 206.298920,257.494995 
	C198.982376,261.703644 193.394058,267.352295 190.777054,275.576324 
	C190.080475,277.765350 189.363647,279.947906 188.177094,282.097778 
	C176.011215,283.454865 164.296448,284.648651 152.643753,286.284698 
	C132.604279,289.098267 112.537720,291.811615 92.610420,295.298035 
	C80.084427,297.489532 67.791641,301.013947 55.394226,303.940369 
z"/>
<path fill="#62C9F2" opacity="1.000000" stroke="none" 
	d="
M428.762451,531.735718 
	C414.246887,540.707458 398.469116,546.808044 382.307159,551.977844 
	C352.490967,561.515259 321.840759,564.722900 290.716644,562.900024 
	C263.309540,561.294861 236.599472,555.713806 211.456436,544.523682 
	C197.243530,538.198059 183.766632,530.218750 170.236008,522.573730 
	C188.927338,526.199707 207.353577,525.829285 225.860016,522.688721 
	C228.057236,522.315857 231.093674,523.168823 232.851791,524.569641 
	C240.567169,530.717102 249.144638,534.258972 259.005341,533.880249 
	C271.638550,533.395081 282.856079,528.596497 292.981201,521.292969 
	C297.622620,517.944946 299.358124,512.199707 297.138916,507.552185 
	C295.681305,504.499603 296.480865,502.504272 297.896942,499.799500 
	C299.323303,497.075012 300.982574,493.113831 299.990631,490.776184 
	C298.157013,486.454895 297.139587,482.834564 298.732147,478.182770 
	C299.298584,476.528137 297.629425,473.375854 296.037750,471.991211 
	C295.093231,471.169556 292.037415,471.983490 290.408844,472.905853 
	C287.106812,474.776093 284.257507,477.435242 280.988434,479.376556 
	C276.134125,482.259186 272.043121,487.222870 265.514648,486.018372 
	C263.099396,485.572754 260.813965,484.423492 258.469299,483.595184 
	C259.739563,481.195282 260.671356,478.514618 262.368439,476.468781 
	C264.353363,474.075897 267.805420,472.646729 269.141632,470.040894 
	C270.459198,467.471375 270.893250,463.615356 269.955750,460.940247 
	C268.857574,457.806671 265.814941,456.000732 261.785278,457.827606 
	C256.223755,460.348938 250.455521,462.409821 244.822403,464.778656 
	C229.624619,471.169861 218.816360,480.741821 219.835724,499.059479 
	C219.886459,499.971100 217.838364,501.733978 216.639801,501.857086 
	C210.545013,502.483063 204.409180,502.986237 198.285736,503.009552 
	C169.437256,503.119446 144.947784,493.131073 126.874039,470.190460 
	C115.094177,455.238495 107.610512,438.184296 105.855240,418.895233 
	C105.530479,415.326447 104.481598,411.676270 103.030167,408.388977 
	C100.300591,402.206848 96.309967,400.885681 90.107750,403.444885 
	C82.009636,406.786377 80.362282,409.914337 81.742897,418.931427 
	C81.963249,420.370575 81.667427,421.888763 81.610237,423.370392 
	C79.476387,419.378021 76.913559,415.551331 75.295227,411.359894 
	C71.571213,401.714874 68.306602,391.892487 65.303009,381.662384 
	C89.709244,379.295685 113.677010,377.514923 137.623917,375.487671 
	C156.451859,373.893768 175.254028,371.995605 194.152786,370.583099 
	C194.762161,375.418060 193.209717,380.810303 198.007187,383.667938 
	C203.050034,386.671661 208.517792,388.995880 213.908447,391.370483 
	C217.786148,393.078644 222.285782,393.705933 225.746170,395.976440 
	C247.546951,410.280884 270.241577,422.627106 295.627502,429.350586 
	C320.725006,435.997711 344.188385,433.236816 364.948761,416.547394 
	C375.550964,408.024231 383.977875,397.511841 391.389862,386.167419 
	C398.208282,375.731567 404.583282,364.953339 414.870300,357.326355 
	C420.027405,353.502808 423.751190,353.459839 427.974091,358.261230 
	C432.354980,363.242279 436.038757,368.831787 440.350922,373.878784 
	C450.484436,385.739105 460.583435,397.644135 471.150665,409.112488 
	C476.831116,415.277374 484.482880,416.491272 492.360046,413.861816 
	C497.354462,412.194641 502.086700,409.741913 506.982422,408.057922 
	C502.208557,428.458710 493.798920,446.996826 483.683472,464.743317 
	C470.520050,487.837189 453.845490,508.204193 434.285004,526.209045 
	C432.370514,527.971252 430.599884,529.889771 428.762451,531.735718 
z"/>
<path fill="#C1E4E5" opacity="1.000000" stroke="none" 
	d="
M429.128967,531.792603 
	C430.599884,529.889771 432.370514,527.971252 434.285004,526.209045 
	C453.845490,508.204193 470.520050,487.837189 483.683472,464.743317 
	C493.798920,446.996826 502.208557,428.458710 507.141113,407.777100 
	C524.770569,395.366089 535.187927,378.690094 537.267090,358.128143 
	C540.639648,324.776001 539.329285,291.324036 535.537109,257.998627 
	C534.318604,247.290680 530.749207,237.893829 521.016479,232.059677 
	C517.041077,229.676682 512.928772,227.311630 508.577576,225.812576 
	C500.902649,223.168472 492.996674,221.194931 485.187439,218.940674 
	C482.394989,213.706009 479.911438,208.276566 476.755005,203.271454 
	C464.985443,184.608536 450.800018,167.857727 434.434479,153.137085 
	C409.866547,131.038498 382.153900,113.975594 350.909393,102.769615 
	C332.551849,96.185600 313.723267,91.477341 294.427551,89.282845 
	C277.166077,87.319717 259.716003,86.355301 242.378571,88.911743 
	C227.817810,91.058769 213.073074,92.689705 198.874542,96.351334 
	C185.291672,99.854195 172.308823,105.682808 159.059311,110.481094 
	C157.827545,110.927170 156.574677,111.314957 154.945923,111.314041 
	C154.575287,110.381508 154.590317,109.864754 154.605362,109.347992 
	C157.233490,107.673676 159.895081,106.049400 162.484390,104.317062 
	C181.419632,91.648674 201.324768,80.929611 222.950562,73.501770 
	C244.516907,66.094345 266.621613,61.820217 289.356476,59.850780 
	C317.159760,57.442291 344.252899,60.831425 371.091064,67.573242 
	C395.520538,73.709984 418.245575,83.717369 439.704254,96.986374 
	C460.912842,110.100723 479.593170,125.932869 496.177460,144.515549 
	C511.765381,161.981873 524.981384,181.048965 534.525269,202.306931 
	C541.115173,216.985229 546.160583,232.424713 550.986145,247.809494 
	C556.559509,265.578125 558.477539,283.996063 559.133240,302.627777 
	C559.764893,320.578766 558.843201,338.307007 555.191345,355.894135 
	C554.249634,360.429535 553.710876,365.058838 552.568787,369.538330 
	C551.952942,371.953766 552.487671,372.998688 554.951965,373.796448 
	C550.261536,375.801422 548.177734,379.674042 546.488159,384.101410 
	C545.140747,387.632111 543.191833,390.929047 541.632202,394.384918 
	C540.943542,395.910980 540.557373,397.573547 539.868469,399.680115 
	C542.187378,399.429962 543.617249,399.275726 545.047058,399.121490 
	C541.388550,406.492889 537.656738,413.828918 534.085388,421.242340 
	C523.428040,443.365295 509.588409,463.243744 493.165985,481.517548 
	C478.725922,497.585449 462.252289,511.078705 444.380951,522.993958 
	C439.583618,526.192444 434.466034,528.910706 429.128967,531.792603 
z"/>
<path fill="#F6F6F6" opacity="1.000000" stroke="none" 
	d="
M618.040649,295.116577 
	C618.027832,293.693695 618.014954,292.270844 618.392822,290.423035 
	C620.871338,289.119873 622.936707,288.182770 625.052917,287.379425 
	C627.318604,286.519348 629.593140,285.293488 631.933594,285.108185 
	C635.710022,284.809113 637.141113,283.345154 637.067261,279.490479 
	C636.869568,269.164307 636.983215,258.831848 637.004272,248.501953 
	C637.031311,235.251999 649.099060,223.564865 661.445862,223.708817 
	C718.086182,224.369171 774.739258,224.138779 831.386230,223.893188 
	C844.211487,223.837585 854.895447,234.141830 854.930054,247.101883 
	C855.088379,306.415344 855.153198,365.730164 854.878906,425.042786 
	C854.819214,437.951660 843.957153,448.811829 830.865479,448.878418 
	C774.885315,449.163177 718.902771,449.053619 662.921265,448.965149 
	C646.942932,448.939880 637.207520,436.854919 637.091248,422.527374 
	C636.810181,387.874329 637.000061,353.217499 636.999878,318.562195 
	C636.999878,317.395905 637.074036,316.223511 636.981628,315.064484 
	C636.683472,311.325378 634.796814,310.648895 631.249451,312.105286 
	C625.579834,314.433075 623.958984,318.762878 623.982605,324.348114 
	C624.037415,337.343628 623.987488,350.339569 624.007629,363.335266 
	C624.012634,366.540283 623.511353,368.936401 619.607788,366.308411 
	C619.846313,364.887177 620.117004,363.895508 620.067810,362.919952 
	C619.468994,351.061676 618.845825,339.204437 618.179077,327.349762 
	C617.879761,322.028961 619.592407,317.417511 623.576355,314.012787 
	C627.455322,310.697754 631.686401,307.771179 635.910461,304.890442 
	C639.725159,302.288971 641.401245,297.807281 639.550171,294.220795 
	C637.507690,290.263550 633.441284,288.844452 629.005371,290.611298 
	C625.334656,292.073334 621.694397,293.611908 618.040649,295.116577 
M752.991394,322.035126 
	C755.755554,328.025696 760.704041,330.532471 767.023743,330.549072 
	C787.343201,330.602386 807.662903,330.613983 827.982300,330.548187 
	C837.618835,330.516998 843.488403,324.549622 843.501465,314.926361 
	C843.528809,294.773376 843.522278,274.620361 843.501038,254.467346 
	C843.490295,244.322495 837.936707,238.779022 827.776245,238.768631 
	C807.789795,238.748169 787.803406,238.753830 767.816956,238.763885 
	C757.020203,238.769333 751.617615,244.185654 751.611755,255.015640 
	C751.601135,274.668976 751.576660,294.322449 751.656372,313.975464 
	C751.666321,316.422546 752.273865,318.867188 752.991394,322.035126 
M737.331970,357.872925 
	C735.955994,349.026062 730.692139,344.400787 721.729309,344.380432 
	C701.731140,344.335052 681.732666,344.342651 661.734436,344.373383 
	C651.419250,344.389252 645.680054,350.153839 645.670227,360.462189 
	C645.651245,380.460510 645.651245,400.458862 645.674500,420.457153 
	C645.686462,430.753174 651.067322,436.128265 661.359131,436.137970 
	C681.190796,436.156677 701.022522,436.144897 720.854187,436.141724 
	C732.240051,436.139893 737.369141,431.076508 737.375000,419.789398 
	C737.385498,399.457794 737.374390,379.126160 737.331970,357.872925 
M706.499634,330.534363 
	C711.497498,330.535706 716.495544,330.563293 721.493164,330.532928 
	C731.614807,330.471405 737.336365,324.869171 737.362915,314.813904 
	C737.416077,294.656067 737.416809,274.497925 737.362793,254.340118 
	C737.335327,244.080215 731.886963,238.775223 721.533142,238.766479 
	C701.541748,238.749603 681.550415,238.749619 661.559021,238.764267 
	C651.046021,238.771973 645.685303,244.181549 645.675659,254.796158 
	C645.657776,274.620941 645.659058,294.445709 645.669556,314.270477 
	C645.675171,324.907318 651.303772,330.517273 662.018372,330.534393 
	C676.512146,330.557556 691.005859,330.536621 706.499634,330.534363 
M793.531860,408.004120 
	C799.023926,408.006622 804.516541,407.963898 810.007874,408.027252 
	C813.767029,408.070648 815.431580,406.373688 815.375671,402.566376 
	C815.258240,394.579651 815.207336,386.587555 815.376282,378.602905 
	C815.461548,374.572845 813.741760,372.688232 809.834045,372.675812 
	C801.679260,372.649933 793.524353,372.668182 785.369507,372.663025 
	C781.443237,372.660522 779.668884,374.496338 779.796875,378.530365 
	C779.976196,384.183289 779.867554,389.846008 779.851562,395.504425 
	C779.813293,409.054779 778.539917,408.057953 793.531860,408.004120 
M758.828857,372.775940 
	C764.159302,372.776062 769.489868,372.796051 774.820129,372.769165 
	C778.220825,372.752045 780.054321,371.259094 779.981750,367.591339 
	C779.863098,361.597015 779.901001,355.597961 779.969666,349.602051 
	C780.014221,345.708405 777.927307,344.291718 774.344666,344.309540 
	C768.681274,344.337708 763.015686,344.410400 757.354614,344.291168 
	C753.062439,344.200775 751.389526,346.187042 751.518250,350.374023 
	C751.681885,355.699371 751.780273,361.045929 751.489319,366.360443 
	C751.224915,371.190674 753.232361,373.183350 758.828857,372.775940 
M825.570862,436.169922 
	C830.059814,436.169861 834.548706,436.168396 839.037659,436.170258 
	C842.114746,436.171539 843.603149,434.647247 843.589600,431.560394 
	C843.562683,425.409149 843.533020,419.257233 843.597229,413.106537 
	C843.634338,409.552490 841.919922,407.931366 838.453125,407.936401 
	C832.467896,407.945099 826.482361,407.971558 820.497559,407.918091 
	C817.043274,407.887268 815.206360,409.356415 815.229614,412.951385 
	C815.269409,419.102600 815.277527,425.254547 815.229248,431.405609 
	C815.202881,434.758636 816.787598,436.302063 820.110596,436.186188 
	C821.605103,436.134064 823.102905,436.172821 825.570862,436.169922 
M839.721741,344.316498 
	C835.740723,344.298126 831.758728,344.330078 827.779053,344.246704 
	C824.077332,344.169128 822.203918,345.850433 822.225647,349.596619 
	C822.246765,353.246002 822.278259,356.896393 822.216431,360.544861 
	C822.152588,364.315643 824.039246,366.001770 827.697327,365.980621 
	C831.180969,365.960480 834.664795,365.987579 838.148315,365.960602 
	C842.040710,365.930420 843.877686,364.084381 843.647522,360.059662 
	C843.458435,356.752838 843.969788,353.372406 843.480530,350.128723 
	C843.181091,348.143585 841.578613,346.354980 839.721741,344.316498 
M772.388428,417.418060 
	C771.840454,416.813965 771.314392,415.708832 770.741028,415.683716 
	C765.280457,415.444458 759.799622,415.170135 754.356628,415.475861 
	C753.348877,415.532471 751.825745,418.078949 751.681702,419.585419 
	C751.302856,423.547363 751.565369,427.569550 751.548035,431.567596 
	C751.534668,434.641937 752.997498,436.193695 756.112793,436.177643 
	C760.110962,436.157043 764.110474,436.123291 768.107422,436.198578 
	C771.564819,436.263641 772.873291,434.461792 772.817261,431.234161 
	C772.742004,426.905762 772.717773,422.576538 772.388428,417.418060 
z"/>
<path fill="#F4F5F6" opacity="1.000000" stroke="none" 
	d="
M619.491333,366.745422 
	C623.511353,368.936401 624.012634,366.540283 624.007629,363.335266 
	C623.987488,350.339569 624.037415,337.343628 623.982605,324.348114 
	C623.958984,318.762878 625.579834,314.433075 631.249451,312.105286 
	C634.796814,310.648895 636.683472,311.325378 636.981628,315.064484 
	C637.074036,316.223511 636.999878,317.395905 636.999878,318.562195 
	C637.000061,353.217499 636.810181,387.874329 637.091248,422.527374 
	C637.207520,436.854919 646.942932,448.939880 662.921265,448.965149 
	C718.902771,449.053619 774.885315,449.163177 830.865479,448.878418 
	C843.957153,448.811829 854.819214,437.951660 854.878906,425.042786 
	C855.153198,365.730164 855.088379,306.415344 854.930054,247.101883 
	C854.895447,234.141830 844.211487,223.837585 831.386230,223.893188 
	C774.739258,224.138779 718.086182,224.369171 661.445862,223.708817 
	C649.099060,223.564865 637.031311,235.251999 637.004272,248.501953 
	C636.983215,258.831848 636.869568,269.164307 637.067261,279.490479 
	C637.141113,283.345154 635.710022,284.809113 631.933594,285.108185 
	C629.593140,285.293488 627.318604,286.519348 625.052917,287.379425 
	C622.936707,288.182770 620.871338,289.119873 618.396667,289.997803 
	C618.008850,269.977997 618.007874,249.958450 618.377319,229.423965 
	C620.497620,224.605209 622.247559,220.301392 623.997559,215.997559 
	C624.260864,215.504166 624.524231,215.010788 625.216064,214.217346 
	C626.096436,213.279373 626.548218,212.641510 627.000000,212.003662 
	C627.492554,211.739563 627.985107,211.475449 629.102295,211.067505 
	C637.421753,206.805176 645.711670,205.941849 654.300415,205.954483 
	C713.276794,206.041153 772.253479,205.971512 831.229858,206.043686 
	C837.184021,206.050964 843.160034,206.443283 849.086365,207.045959 
	C861.233826,208.281281 869.966370,217.958008 869.975159,230.274323 
	C870.025513,301.079437 870.051453,371.884766 869.855896,442.689362 
	C869.845520,446.451202 868.393188,450.575867 866.498413,453.895935 
	C861.127441,463.306671 851.922058,465.945892 841.872009,465.958496 
	C777.231201,466.039703 712.590149,466.005432 647.949219,465.971741 
	C646.148987,465.970795 644.292358,465.758514 642.559631,465.286591 
	C637.679932,463.957642 632.851257,462.441650 628.002441,460.999329 
	C627.414795,460.510345 626.827087,460.021332 626.114868,458.891052 
	C624.237061,453.409882 622.568359,448.535950 620.648499,443.763062 
	C620.322388,442.952423 618.918274,442.575439 618.012207,441.998108 
	C618.009949,419.644867 618.007751,397.291595 618.345825,374.415527 
	C619.793213,372.324860 622.607117,370.864441 618.994202,368.999451 
	C618.989624,368.545044 618.985046,368.090607 619.084839,367.176575 
	C619.189148,366.716980 619.491333,366.745422 619.491333,366.745422 
z"/>
<path fill="#060705" opacity="1.000000" stroke="none" 
	d="
M1036.187744,389.801697 
	C1039.291382,393.494751 1042.168579,396.915802 1045.109741,400.413025 
	C1033.799438,413.129822 1019.554443,416.800934 1003.449707,415.701965 
	C987.100342,414.586334 974.018860,406.800812 962.714050,395.713013 
	C956.714233,389.828369 950.290771,385.615692 942.165955,382.704010 
	C914.020813,372.617676 899.427246,347.370209 901.390198,320.196045 
	C903.582764,289.842499 924.332092,267.252838 953.427185,262.023590 
	C974.567688,258.224030 994.720459,260.591187 1012.528015,273.243195 
	C1051.392944,300.856018 1045.987793,359.632996 1002.874329,380.754425 
	C1001.844727,381.258850 1000.817078,381.767303 999.731628,382.301910 
	C1007.104980,389.783417 1014.801453,389.091644 1027.588623,379.783936 
	C1030.366333,383.017212 1033.163818,386.273468 1036.187744,389.801697 
M987.523132,348.064911 
	C998.224060,337.184235 999.482239,324.257812 994.603821,310.676483 
	C988.560791,293.852905 967.291992,288.139954 953.334229,299.333405 
	C944.333801,306.551361 942.006165,316.605988 942.838135,327.574036 
	C943.644104,338.199524 948.026611,347.005951 957.912598,351.769135 
	C968.036743,356.647095 977.935486,355.414307 987.523132,348.064911 
z"/>
<path fill="#F2AE1C" opacity="1.000000" stroke="none" 
	d="
M194.067657,370.232605 
	C175.254028,371.995605 156.451859,373.893768 137.623917,375.487671 
	C113.677010,377.514923 89.709244,379.295685 65.279572,381.280640 
	C57.405846,377.473328 57.044460,369.822906 56.500492,363.215546 
	C55.070042,345.840546 54.660564,328.379089 54.000877,310.946167 
	C53.921886,308.858734 54.809566,306.734680 55.321709,304.283997 
	C67.791641,301.013947 80.084427,297.489532 92.610420,295.298035 
	C112.537720,291.811615 132.604279,289.098267 152.643753,286.284698 
	C164.296448,284.648651 176.011215,283.454865 188.236328,282.474304 
	C190.345306,293.909119 192.749527,304.890472 193.297607,315.963684 
	C194.191452,334.021790 193.873993,352.139832 194.067657,370.232605 
z"/>
<path fill="#070806" opacity="1.000000" stroke="none" 
	d="
M1053.484131,293.999695 
	C1053.484131,283.533752 1053.484131,273.567810 1053.484131,263.335419 
	C1055.371094,263.244568 1056.819580,263.098389 1058.266113,263.116577 
	C1080.077393,263.390717 1101.937378,262.878113 1123.685547,264.200958 
	C1146.102905,265.564545 1162.378052,279.475616 1166.404907,299.085876 
	C1169.812256,315.679077 1166.524170,335.041168 1144.738037,347.620483 
	C1153.016846,359.837494 1161.282959,372.035889 1170.089111,385.031067 
	C1161.158081,385.031067 1152.951904,385.064331 1144.745972,385.020111 
	C1138.602051,384.987000 1131.415527,386.798248 1126.607910,384.219177 
	C1121.792603,381.635895 1119.346924,374.628387 1115.874878,369.551605 
	C1114.090332,366.942261 1111.985107,364.481384 1110.631714,361.662079 
	C1107.398193,354.925842 1102.349365,352.717194 1094.772217,354.994537 
	C1094.772217,364.516815 1094.772217,374.433746 1094.772217,384.686279 
	C1080.873169,384.686279 1067.477295,384.686279 1053.484131,384.686279 
	C1053.484131,354.698120 1053.484131,324.598907 1053.484131,293.999695 
M1118.028687,321.985840 
	C1124.597534,318.445648 1126.930176,313.879395 1125.953369,306.473206 
	C1125.192383,300.702911 1121.689941,296.360260 1115.291260,295.627869 
	C1108.498657,294.850372 1101.547974,295.453094 1094.537720,295.453094 
	C1094.537720,300.126282 1094.537720,304.613525 1094.537720,309.100769 
	C1094.537720,313.704926 1094.537720,318.309113 1094.537720,323.864227 
	C1102.490112,323.276215 1109.862915,322.731049 1118.028687,321.985840 
z"/>
<path fill="#299FBB" opacity="1.000000" stroke="none" 
	d="
M81.623451,423.550995 
	C81.667427,421.888763 81.963249,420.370575 81.742897,418.931427 
	C80.362282,409.914337 82.009636,406.786377 90.107750,403.444885 
	C96.309967,400.885681 100.300591,402.206848 103.030167,408.388977 
	C104.481598,411.676270 105.530479,415.326447 105.855240,418.895233 
	C107.610512,438.184296 115.094177,455.238495 126.874039,470.190460 
	C144.947784,493.131073 169.437256,503.119446 198.285736,503.009552 
	C204.409180,502.986237 210.545013,502.483063 216.639801,501.857086 
	C217.838364,501.733978 219.886459,499.971100 219.835724,499.059479 
	C218.816360,480.741821 229.624619,471.169861 244.822403,464.778656 
	C250.455521,462.409821 256.223755,460.348938 261.785278,457.827606 
	C265.814941,456.000732 268.857574,457.806671 269.955750,460.940247 
	C270.893250,463.615356 270.459198,467.471375 269.141632,470.040894 
	C267.805420,472.646729 264.353363,474.075897 262.368439,476.468781 
	C260.671356,478.514618 259.739563,481.195282 258.469299,483.595184 
	C260.813965,484.423492 263.099396,485.572754 265.514648,486.018372 
	C272.043121,487.222870 276.134125,482.259186 280.988434,479.376556 
	C284.257507,477.435242 287.106812,474.776093 290.408844,472.905853 
	C292.037415,471.983490 295.093231,471.169556 296.037750,471.991211 
	C297.629425,473.375854 299.298584,476.528137 298.732147,478.182770 
	C297.139587,482.834564 298.157013,486.454895 299.990631,490.776184 
	C300.982574,493.113831 299.323303,497.075012 297.896942,499.799500 
	C296.480865,502.504272 295.681305,504.499603 297.138916,507.552185 
	C299.358124,512.199707 297.622620,517.944946 292.981201,521.292969 
	C282.856079,528.596497 271.638550,533.395081 259.005341,533.880249 
	C249.144638,534.258972 240.567169,530.717102 232.851791,524.569641 
	C231.093674,523.168823 228.057236,522.315857 225.860016,522.688721 
	C207.353577,525.829285 188.927338,526.199707 170.106354,522.260376 
	C169.038635,522.213379 168.378342,522.069092 167.320374,521.464600 
	C166.146286,520.865662 165.369873,520.726990 164.593445,520.588257 
	C148.471268,517.027954 133.712921,510.965149 121.651505,499.070770 
	C103.844353,481.510193 91.382324,460.955109 85.314163,436.141449 
	C84.932358,434.002014 84.330795,432.431610 83.729233,430.861206 
	C83.458427,429.588684 83.187622,428.316132 82.913193,426.318054 
	C82.530655,425.084106 82.151749,424.575653 81.772842,424.067230 
	C81.772835,424.067230 81.636665,423.731598 81.623451,423.550995 
z"/>
<path fill="#090A08" opacity="1.000000" stroke="none" 
	d="
M1599.486328,295.453644 
	C1604.440308,298.746185 1609.069824,301.841125 1613.941772,305.098175 
	C1613.941772,297.230194 1613.941650,288.998657 1613.941650,280.767120 
	C1613.941650,272.639984 1613.941772,264.512848 1613.941772,256.151978 
	C1619.543701,256.151978 1624.807007,256.151978 1630.377686,256.151978 
	C1630.377686,298.904083 1630.377686,341.636566 1630.377686,384.702393 
	C1625.319336,384.702393 1620.243896,384.702393 1614.659424,384.702393 
	C1614.659424,380.579193 1614.659424,376.354950 1614.659424,371.474335 
	C1611.186401,374.428101 1608.498047,377.081818 1605.458008,379.240417 
	C1585.748169,393.235168 1543.153076,387.701599 1536.123779,349.022797 
	C1532.220581,327.544800 1539.872681,308.575439 1556.019165,298.922302 
	C1569.691040,290.748627 1584.203491,289.688324 1599.486328,295.453644 
M1587.118408,306.858734 
	C1570.830444,305.657227 1559.186523,312.648895 1554.056641,326.711212 
	C1548.962036,340.676819 1553.470215,357.601318 1564.378906,365.463593 
	C1574.581787,372.817139 1589.371338,373.418579 1599.650024,366.898132 
	C1611.317261,359.496887 1616.198853,346.052429 1613.017944,330.081543 
	C1610.605347,317.969025 1601.290161,309.361237 1587.118408,306.858734 
z"/>
<path fill="#080907" opacity="1.000000" stroke="none" 
	d="
M1417.924316,326.997864 
	C1426.075684,292.532440 1462.071411,286.163666 1481.988525,296.059387 
	C1486.523682,298.312683 1490.473145,301.744843 1495.273193,305.032288 
	C1495.273193,297.029053 1495.273193,288.855621 1495.273193,280.682159 
	C1495.273193,272.566254 1495.273193,264.450378 1495.273193,256.130157 
	C1501.017456,256.130157 1506.272217,256.130157 1511.779785,256.130157 
	C1511.779785,298.947388 1511.779785,341.673401 1511.779785,384.716095 
	C1506.794067,384.716095 1501.723877,384.716095 1496.103882,384.716095 
	C1496.103882,380.516144 1496.103882,376.154785 1496.103882,371.320618 
	C1478.229492,387.677490 1457.300415,390.643250 1438.644287,379.884705 
	C1421.501343,369.998779 1413.077637,348.720581 1417.924316,326.997864 
M1488.286865,360.715820 
	C1489.206665,359.333954 1490.188721,357.989166 1491.036621,356.564484 
	C1499.456787,342.414581 1495.646973,321.241180 1483.103882,312.365723 
	C1469.723267,302.897430 1449.880859,305.376740 1440.289062,317.715454 
	C1429.878662,331.107178 1431.628052,353.239441 1444.104858,364.126129 
	C1456.300049,374.767151 1477.229492,373.800842 1488.286865,360.715820 
z"/>
<path fill="#080907" opacity="1.000000" stroke="none" 
	d="
M1282.722534,325.381409 
	C1285.818237,340.701599 1284.553467,354.918304 1275.632446,367.783997 
	C1260.384521,389.774536 1222.848267,393.066864 1205.355347,371.300812 
	C1205.355347,376.031128 1205.355347,380.167969 1205.355347,384.668640 
	C1199.789673,384.668640 1194.718262,384.668640 1189.292480,384.668640 
	C1189.292480,342.070312 1189.292480,299.227905 1189.292480,256.150787 
	C1194.550659,256.150787 1199.811523,256.150787 1205.546875,256.150787 
	C1205.546875,272.407410 1205.546875,288.639404 1205.546875,306.249786 
	C1218.421265,292.448792 1233.532593,289.498810 1249.975586,293.345947 
	C1266.913208,297.308807 1277.802368,308.171631 1282.722534,325.381409 
M1259.243164,361.717346 
	C1270.085938,348.715485 1270.243286,327.846191 1259.351196,316.331635 
	C1250.014893,306.461792 1238.346802,304.340393 1225.893188,308.332367 
	C1212.888916,312.500854 1206.915527,322.641602 1205.540161,335.807739 
	C1204.100952,349.583191 1210.990112,362.873260 1222.343872,368.260162 
	C1234.799194,374.169769 1249.005737,371.816376 1259.243164,361.717346 
z"/>
<path fill="#080907" opacity="1.000000" stroke="none" 
	d="
M1725.400635,334.482178 
	C1716.136353,355.481201 1707.126099,376.178650 1697.963989,396.808594 
	C1691.589844,411.160614 1681.646484,420.705536 1664.754761,419.859070 
	C1656.656860,419.453278 1649.087402,417.241150 1642.636108,411.294067 
	C1644.949341,407.217316 1647.212524,403.228607 1649.067261,399.959930 
	C1654.182129,401.859894 1658.803711,404.218323 1663.703979,405.241180 
	C1670.446899,406.648621 1676.280518,404.242065 1679.993652,398.195923 
	C1682.242310,394.534271 1684.239990,390.654297 1685.775879,386.651917 
	C1686.361816,385.125305 1685.728760,382.814026 1684.998169,381.146362 
	C1672.877319,353.477203 1660.650513,325.854462 1648.457031,298.217102 
	C1647.798218,296.724152 1647.224609,295.193604 1646.276733,292.854919 
	C1651.857788,292.854919 1656.914185,292.620850 1661.917847,293.029358 
	C1663.081787,293.124390 1664.435303,295.244446 1665.079468,296.706787 
	C1674.780884,318.730988 1684.377563,340.801300 1694.002808,362.859009 
	C1694.399658,363.768799 1694.834473,364.662079 1695.525146,366.153870 
	C1696.455566,364.259491 1697.259155,362.788544 1697.918823,361.255676 
	C1707.039551,340.064362 1716.233765,318.903778 1725.159668,297.630585 
	C1726.749146,293.842224 1728.769043,292.317657 1732.839233,292.773346 
	C1736.118652,293.140472 1739.472168,292.847687 1743.675781,292.847687 
	C1737.493652,306.966309 1731.541748,320.559052 1725.400635,334.482178 
z"/>
<path fill="#050604" opacity="1.000000" stroke="none" 
	d="
M1345.992676,386.044617 
	C1321.332153,385.619659 1307.549927,372.648315 1306.826050,348.565186 
	C1306.271729,330.120361 1306.715820,311.645569 1306.715820,293.020599 
	C1312.200928,293.020599 1317.337524,293.020599 1322.944336,293.020599 
	C1323.026733,294.386017 1323.184937,295.804077 1323.186646,297.222321 
	C1323.205078,312.380402 1323.117920,327.539185 1323.256348,342.696014 
	C1323.291016,346.491364 1323.605591,350.386780 1324.525513,354.051941 
	C1327.197998,364.698608 1334.670288,370.488861 1345.765625,371.028961 
	C1359.554077,371.700165 1370.191406,365.967163 1373.888916,354.988342 
	C1375.607178,349.886719 1376.466309,344.293304 1376.592407,338.896576 
	C1376.945923,323.763214 1376.715576,308.616272 1376.715576,293.164978 
	C1382.151123,293.164978 1387.390747,293.164978 1392.938965,293.164978 
	C1392.938965,323.523621 1392.938965,353.928619 1392.938965,384.680939 
	C1388.100830,384.680939 1383.043701,384.680939 1377.489136,384.680939 
	C1377.489136,380.796112 1377.489136,376.892792 1377.489136,371.736816 
	C1368.615967,381.567078 1358.510864,386.080963 1345.992676,386.044617 
z"/>
<path fill="#F4B121" opacity="1.000000" stroke="none" 
	d="
M154.338516,109.132843 
	C154.590317,109.864754 154.575287,110.381508 154.592056,111.158447 
	C154.623871,111.418625 154.663376,111.515671 154.360458,111.526222 
	C153.578354,111.990562 153.099167,112.444344 152.619995,112.898132 
	C152.364807,112.916916 152.143326,113.013214 151.582962,113.436569 
	C150.975525,113.977386 150.740662,114.268661 150.505814,114.559944 
	C146.743439,117.214287 142.981049,119.868629 138.955688,122.595985 
	C131.552856,111.679306 124.516907,100.619087 117.157272,89.778618 
	C116.095871,88.215195 113.438095,86.779549 111.586472,86.858826 
	C95.797043,87.534920 79.729065,74.058197 83.395660,54.039627 
	C85.086548,44.807838 90.791809,38.223694 99.521179,34.572968 
	C109.092064,30.570301 118.233559,31.817738 126.277222,38.170918 
	C137.094284,46.714653 139.942764,59.457779 133.906754,71.665779 
	C132.468002,74.575699 132.911926,76.495140 134.504623,78.904007 
	C141.091324,88.866020 147.559784,98.906212 154.338516,109.132843 
z"/>
<path fill="#2EA1BC" opacity="1.000000" stroke="none" 
	d="
M619.607788,366.308411 
	C619.491333,366.745422 619.189148,366.716980 619.095093,366.835907 
	C617.553894,367.323425 616.106750,367.692017 614.071228,368.145142 
	C612.964600,368.418549 612.446289,368.607422 611.928040,368.796295 
	C611.210999,368.749115 610.493896,368.701965 609.171143,368.520020 
	C607.715271,368.243561 606.865112,368.101837 605.818481,367.649109 
	C604.307251,367.787292 602.992493,368.236511 601.677734,368.685699 
	C601.677734,368.685699 601.974548,368.917297 601.509033,368.834290 
	C600.480591,369.411102 599.917603,370.070862 599.354614,370.730652 
	C597.290283,372.188293 595.225952,373.645966 592.678589,375.457428 
	C591.587036,376.455597 590.978455,377.099945 590.369873,377.744293 
	C586.193787,380.314331 582.171143,383.188843 577.808105,385.388092 
	C569.877197,389.385742 561.743958,392.982086 553.041748,396.801636 
	C551.914734,397.164581 551.441162,397.471741 550.967529,397.778870 
	C549.231689,398.138580 547.495911,398.498260 545.403564,398.989746 
	C543.617249,399.275726 542.187378,399.429962 539.868469,399.680115 
	C540.557373,397.573547 540.943542,395.910980 541.632202,394.384918 
	C543.191833,390.929047 545.140747,387.632111 546.488159,384.101410 
	C548.177734,379.674042 550.261536,375.801422 555.336548,373.981018 
	C557.845337,372.606262 560.123230,371.471985 563.017944,370.181488 
	C564.226196,369.470062 564.817444,368.914825 565.408691,368.359619 
	C577.022217,362.096802 587.443665,354.310760 595.737305,343.967590 
	C596.910583,342.504364 597.844788,339.910675 597.400635,338.234741 
	C593.048584,321.812317 602.162048,305.125336 616.192932,296.951416 
	C616.755493,296.623718 617.220398,296.128204 617.885742,295.413727 
	C621.694397,293.611908 625.334656,292.073334 629.005371,290.611298 
	C633.441284,288.844452 637.507690,290.263550 639.550171,294.220795 
	C641.401245,297.807281 639.725159,302.288971 635.910461,304.890442 
	C631.686401,307.771179 627.455322,310.697754 623.576355,314.012787 
	C619.592407,317.417511 617.879761,322.028961 618.179077,327.349762 
	C618.845825,339.204437 619.468994,351.061676 620.067810,362.919952 
	C620.117004,363.895508 619.846313,364.887177 619.607788,366.308411 
z"/>
<path fill="#F6F6F6" opacity="1.000000" stroke="none" 
	d="
M628.152954,461.307922 
	C632.851257,462.441650 637.679932,463.957642 642.559631,465.286591 
	C644.292358,465.758514 646.148987,465.970795 647.949219,465.971741 
	C712.590149,466.005432 777.231201,466.039703 841.872009,465.958496 
	C851.922058,465.945892 861.127441,463.306671 866.498413,453.895935 
	C868.393188,450.575867 869.845520,446.451202 869.855896,442.689362 
	C870.051453,371.884766 870.025513,301.079437 869.975159,230.274323 
	C869.966370,217.958008 861.233826,208.281281 849.086365,207.045959 
	C843.160034,206.443283 837.184021,206.050964 831.229858,206.043686 
	C772.253479,205.971512 713.276794,206.041153 654.300415,205.954483 
	C645.711670,205.941849 637.421753,206.805176 629.361084,210.960327 
	C631.627563,209.010376 633.995178,206.141052 636.957092,205.252563 
	C640.986877,204.043686 645.470337,204.051849 649.759766,204.047501 
	C713.245422,203.983078 776.731262,203.943756 840.216736,204.070572 
	C849.158875,204.088440 858.201050,204.715637 864.766907,212.271881 
	C869.248535,217.429581 872.050049,223.152618 872.042969,230.246948 
	C871.972107,301.230927 872.001648,372.214996 871.997986,443.199036 
	C871.997437,453.491852 864.810181,463.244446 854.782776,465.947174 
	C850.570435,467.082520 846.122803,467.906067 841.780396,467.914124 
	C775.795471,468.035950 709.810242,467.993103 643.825073,468.008270 
	C637.746582,468.009674 632.626770,465.812500 628.152954,461.307922 
z"/>
<path fill="#F6F6F6" opacity="1.000000" stroke="none" 
	d="
M618.008728,442.417023 
	C618.918274,442.575439 620.322388,442.952423 620.648499,443.763062 
	C622.568359,448.535950 624.237061,453.409882 625.995239,458.624268 
	C620.766479,454.881683 618.576416,449.259186 618.008728,442.417023 
z"/>
<path fill="#F6F6F6" opacity="1.000000" stroke="none" 
	d="
M623.645264,216.054276 
	C622.247559,220.301392 620.497620,224.605209 618.379883,228.955414 
	C619.772461,224.704865 621.532715,220.407928 623.645264,216.054276 
z"/>
<path fill="#F6F6F6" opacity="1.000000" stroke="none" 
	d="
M618.716919,369.249695 
	C622.607117,370.864441 619.793213,372.324860 618.347961,373.946960 
	C618.153076,372.500763 618.296387,371.000336 618.716919,369.249695 
z"/>
<path fill="#62C9F2" opacity="1.000000" stroke="none" 
	d="
M83.571762,431.183685 
	C84.330795,432.431610 84.932358,434.002014 85.296654,435.753448 
	C84.511024,434.458374 83.962662,432.982269 83.571762,431.183685 
z"/>
<path fill="#F4F5F6" opacity="1.000000" stroke="none" 
	d="
M602.105591,368.788696 
	C602.992493,368.236511 604.307251,367.787292 605.815796,367.911621 
	C606.008423,368.660034 606.007202,368.834961 606.006042,369.009888 
	C604.848511,368.970490 603.690918,368.931091 602.105591,368.788696 
z"/>
<path fill="#F6F6F6" opacity="1.000000" stroke="none" 
	d="
M606.291016,369.129181 
	C606.007202,368.834961 606.008423,368.660034 606.012268,368.222626 
	C606.865112,368.101837 607.715271,368.243561 608.816895,368.589050 
	C608.237549,368.944733 607.406799,369.096588 606.291016,369.129181 
z"/>
<path fill="#62C9F2" opacity="1.000000" stroke="none" 
	d="
M164.750076,520.846802 
	C165.369873,520.726990 166.146286,520.865662 167.011932,521.322876 
	C166.369675,521.462646 165.638184,521.283997 164.750076,520.846802 
z"/>
<path fill="#F6F6F6" opacity="1.000000" stroke="none" 
	d="
M626.679565,212.044434 
	C626.548218,212.641510 626.096436,213.279373 625.324768,213.958954 
	C625.456299,213.362167 625.907654,212.723694 626.679565,212.044434 
z"/>
<path fill="#C1E4E5" opacity="1.000000" stroke="none" 
	d="
M551.096130,398.050659 
	C551.441162,397.471741 551.914734,397.164581 552.685364,396.914886 
	C552.396484,397.422363 551.810608,397.872375 551.096130,398.050659 
z"/>
<path fill="#F4F5F6" opacity="1.000000" stroke="none" 
	d="
M590.772583,377.793823 
	C590.978455,377.099945 591.587036,376.455597 592.535767,375.750214 
	C592.309082,376.407257 591.742126,377.125275 590.772583,377.793823 
z"/>
<path fill="#F4F5F6" opacity="1.000000" stroke="none" 
	d="
M599.757629,370.784424 
	C599.917603,370.070862 600.480591,369.411102 601.371948,368.705292 
	C601.187134,369.385559 600.673889,370.111877 599.757629,370.784424 
z"/>
<path fill="#F6F6F6" opacity="1.000000" stroke="none" 
	d="
M612.056396,369.042114 
	C612.446289,368.607422 612.964600,368.418549 613.748535,368.341766 
	C613.404419,368.731903 612.794556,369.009918 612.056396,369.042114 
z"/>
<path fill="#C1E4E5" opacity="1.000000" stroke="none" 
	d="
M565.061157,368.268921 
	C564.817444,368.914825 564.226196,369.470062 563.316101,370.004883 
	C563.569397,369.382416 564.141541,368.780334 565.061157,368.268921 
z"/>
<path fill="#62C9F2" opacity="1.000000" stroke="none" 
	d="
M81.747337,424.391785 
	C82.151749,424.575653 82.530655,425.084106 82.829018,425.933441 
	C82.406258,425.755035 82.064041,425.235718 81.747337,424.391785 
z"/>
<path fill="#161818" opacity="1.000000" stroke="none" 
	d="
M194.152786,370.583130 
	C193.873993,352.139832 194.191452,334.021790 193.297607,315.963684 
	C192.749527,304.890472 190.345306,293.909119 188.715363,282.510010 
	C189.363647,279.947906 190.080475,277.765350 190.777054,275.576324 
	C193.394058,267.352295 198.982376,261.703644 206.298920,257.494995 
	C223.037476,247.866638 241.229431,242.042877 259.776733,237.254150 
	C295.277405,228.088226 331.466980,223.068405 367.890106,219.337692 
	C400.403473,216.007431 432.936279,214.413544 465.575745,216.663101 
	C471.863617,217.096497 478.096954,218.322128 484.771423,219.061493 
	C492.996674,221.194931 500.902649,223.168472 508.577576,225.812576 
	C512.928772,227.311630 517.041077,229.676682 521.016479,232.059677 
	C530.749207,237.893829 534.318604,247.290680 535.537109,257.998627 
	C539.329285,291.324036 540.639648,324.776001 537.267090,358.128143 
	C535.187927,378.690094 524.770569,395.366089 507.095245,407.360657 
	C502.086700,409.741913 497.354462,412.194641 492.360046,413.861816 
	C484.482880,416.491272 476.831116,415.277374 471.150665,409.112488 
	C460.583435,397.644135 450.484436,385.739105 440.350922,373.878784 
	C436.038757,368.831787 432.354980,363.242279 427.974091,358.261230 
	C423.751190,353.459839 420.027405,353.502808 414.870300,357.326355 
	C404.583282,364.953339 398.208282,375.731567 391.389862,386.167419 
	C383.977875,397.511841 375.550964,408.024231 364.948761,416.547394 
	C344.188385,433.236816 320.725006,435.997711 295.627502,429.350586 
	C270.241577,422.627106 247.546951,410.280884 225.746170,395.976440 
	C222.285782,393.705933 217.786148,393.078644 213.908447,391.370483 
	C208.517792,388.995880 203.050034,386.671661 198.007187,383.667938 
	C193.209717,380.810303 194.762161,375.418060 194.152786,370.583130 
M352.407379,405.036865 
	C362.936890,393.051544 373.659088,381.228394 383.929321,369.024902 
	C390.977203,360.650360 396.682892,351.052246 404.274323,343.252533 
	C414.222412,333.031586 426.983093,334.716614 435.661255,346.053925 
	C438.388885,349.617401 440.935669,353.346069 443.920807,356.680786 
	C454.556152,368.561768 465.072510,380.570343 476.184357,391.995239 
	C482.166138,398.145477 490.667755,399.737061 497.917877,395.573822 
	C516.240723,385.052155 528.877136,369.234772 529.295471,347.657440 
	C529.804016,321.425293 528.311035,295.097137 526.453125,268.897766 
	C525.334290,253.119476 516.222107,241.840469 500.576233,237.614166 
	C490.523010,234.898575 480.108826,233.070160 469.738312,232.076172 
	C450.871063,230.267807 431.958984,229.021637 412.946198,231.067596 
	C396.088104,232.881668 379.017212,233.016495 362.263428,235.437271 
	C331.029907,239.950256 299.921051,245.372894 268.836975,250.851715 
	C255.356964,253.227676 242.317307,257.395599 230.812897,265.216431 
	C218.250137,273.756805 209.301834,284.716431 209.228958,300.737152 
	C209.169113,313.891510 209.412247,327.064667 210.122238,340.196991 
	C210.430634,345.901123 211.046005,352.147797 213.602448,357.066803 
	C221.385162,372.041870 233.608704,382.657471 249.463959,388.672241 
	C267.813446,395.633179 286.299896,402.232086 304.691162,409.084015 
	C320.990051,415.156433 336.841705,416.100250 352.407379,405.036865 
z"/>
<path fill="#C1E4E5" opacity="1.000000" stroke="none" 
	d="
M152.986755,112.923264 
	C153.099167,112.444344 153.578354,111.990562 154.396088,111.564621 
	C154.274277,112.044441 153.813904,112.496414 152.986755,112.923264 
z"/>
<path fill="#C1E4E5" opacity="1.000000" stroke="none" 
	d="
M150.832153,114.565186 
	C150.740662,114.268661 150.975525,113.977386 151.480301,113.589149 
	C151.552994,113.851601 151.355759,114.211014 150.832153,114.565186 
z"/>
<path fill="#0B0C0A" opacity="1.000000" stroke="none" 
	d="
M752.797913,321.674042 
	C752.273865,318.867188 751.666321,316.422546 751.656372,313.975464 
	C751.576660,294.322449 751.601135,274.668976 751.611755,255.015640 
	C751.617615,244.185654 757.020203,238.769333 767.816956,238.763885 
	C787.803406,238.753830 807.789795,238.748169 827.776245,238.768631 
	C837.936707,238.779022 843.490295,244.322495 843.501038,254.467346 
	C843.522278,274.620361 843.528809,294.773376 843.501465,314.926361 
	C843.488403,324.549622 837.618835,330.516998 827.982300,330.548187 
	C807.662903,330.613983 787.343201,330.602386 767.023743,330.549072 
	C760.704041,330.532471 755.755554,328.025696 752.797913,321.674042 
M815.291382,296.216522 
	C815.295654,288.234924 815.239929,280.252594 815.331665,272.272003 
	C815.372009,268.766235 813.877991,266.949890 810.346191,266.946381 
	C801.699585,266.937744 793.052734,266.921204 784.406372,266.969849 
	C781.390015,266.986786 779.857788,268.588440 779.864380,271.654755 
	C779.882690,280.135071 779.905823,288.615601 779.861206,297.095703 
	C779.842407,300.666077 781.671021,302.264984 785.067383,302.275513 
	C793.381531,302.301239 801.695801,302.303589 810.009888,302.271851 
	C813.357361,302.259064 815.360962,300.745636 815.291382,296.216522 
z"/>
<path fill="#0B0C0A" opacity="1.000000" stroke="none" 
	d="
M737.352173,358.333740 
	C737.374390,379.126160 737.385498,399.457794 737.375000,419.789398 
	C737.369141,431.076508 732.240051,436.139893 720.854187,436.141724 
	C701.022522,436.144897 681.190796,436.156677 661.359131,436.137970 
	C651.067322,436.128265 645.686462,430.753174 645.674500,420.457153 
	C645.651245,400.458862 645.651245,380.460510 645.670227,360.462189 
	C645.680054,350.153839 651.419250,344.389252 661.734436,344.373383 
	C681.732666,344.342651 701.731140,344.335052 721.729309,344.380432 
	C730.692139,344.400787 735.955994,349.026062 737.352173,358.333740 
M709.060669,393.479340 
	C709.066040,388.319519 709.000488,383.158356 709.101257,378.000397 
	C709.169739,374.490326 707.660522,372.685516 704.103210,372.686829 
	C695.780945,372.689850 687.458740,372.696625 679.136475,372.682312 
	C675.670654,372.676331 673.883667,374.306946 673.887329,377.835724 
	C673.896057,386.157898 673.911804,394.480225 673.861145,402.802124 
	C673.837769,406.649597 675.742004,408.112274 679.461365,408.017914 
	C684.784302,407.882874 690.113220,408.007660 695.439270,407.972961 
	C710.733643,407.873413 708.999512,409.818329 709.060669,393.479340 
z"/>
<path fill="#0B0B0A" opacity="1.000000" stroke="none" 
	d="
M705.999634,330.534485 
	C691.005859,330.536621 676.512146,330.557556 662.018372,330.534393 
	C651.303772,330.517273 645.675171,324.907318 645.669556,314.270477 
	C645.659058,294.445709 645.657776,274.620941 645.675659,254.796158 
	C645.685303,244.181549 651.046021,238.771973 661.559021,238.764267 
	C681.550415,238.749619 701.541748,238.749603 721.533142,238.766479 
	C731.886963,238.775223 737.335327,244.080215 737.362793,254.340118 
	C737.416809,274.497925 737.416077,294.656067 737.362915,314.813904 
	C737.336365,324.869171 731.614807,330.471405 721.493164,330.532928 
	C716.495544,330.563293 711.497498,330.535706 705.999634,330.534485 
M675.432800,301.237579 
	C676.023560,301.536530 676.611694,302.090240 677.205444,302.096313 
	C686.529724,302.192108 695.862854,302.416229 705.170776,302.039673 
	C706.531799,301.984589 708.817749,299.038635 708.895203,297.348724 
	C709.283630,288.869202 709.073059,280.362549 709.087952,271.865448 
	C709.093567,268.655609 707.749817,266.882385 704.312195,266.905792 
	C695.815369,266.963623 687.317810,266.959686 678.820923,266.911682 
	C675.466858,266.892731 673.911987,268.554779 673.890503,271.782684 
	C673.864990,275.614410 673.806213,279.450073 673.941284,283.277710 
	C674.144958,289.051605 674.504272,294.820038 675.432800,301.237579 
z"/>
<path fill="#0B0C0B" opacity="1.000000" stroke="none" 
	d="
M793.038818,408.004150 
	C778.539917,408.057953 779.813293,409.054779 779.851562,395.504425 
	C779.867554,389.846008 779.976196,384.183289 779.796875,378.530365 
	C779.668884,374.496338 781.443237,372.660522 785.369507,372.663025 
	C793.524353,372.668182 801.679260,372.649933 809.834045,372.675812 
	C813.741760,372.688232 815.461548,374.572845 815.376282,378.602905 
	C815.207336,386.587555 815.258240,394.579651 815.375671,402.566376 
	C815.431580,406.373688 813.767029,408.070648 810.007874,408.027252 
	C804.516541,407.963898 799.023926,408.006622 793.038818,408.004150 
z"/>
<path fill="#121311" opacity="1.000000" stroke="none" 
	d="
M758.372803,372.777710 
	C753.232361,373.183350 751.224915,371.190674 751.489319,366.360443 
	C751.780273,361.045929 751.681885,355.699371 751.518250,350.374023 
	C751.389526,346.187042 753.062439,344.200775 757.354614,344.291168 
	C763.015686,344.410400 768.681274,344.337708 774.344666,344.309540 
	C777.927307,344.291718 780.014221,345.708405 779.969666,349.602051 
	C779.901001,355.597961 779.863098,361.597015 779.981750,367.591339 
	C780.054321,371.259094 778.220825,372.752045 774.820129,372.769165 
	C769.489868,372.796051 764.159302,372.776062 758.372803,372.777710 
z"/>
<path fill="#111210" opacity="1.000000" stroke="none" 
	d="
M825.085022,436.170166 
	C823.102905,436.172821 821.605103,436.134064 820.110596,436.186188 
	C816.787598,436.302063 815.202881,434.758636 815.229248,431.405609 
	C815.277527,425.254547 815.269409,419.102600 815.229614,412.951385 
	C815.206360,409.356415 817.043274,407.887268 820.497559,407.918091 
	C826.482361,407.971558 832.467896,407.945099 838.453125,407.936401 
	C841.919922,407.931366 843.634338,409.552490 843.597229,413.106537 
	C843.533020,419.257233 843.562683,425.409149 843.589600,431.560394 
	C843.603149,434.647247 842.114746,436.171539 839.037659,436.170258 
	C834.548706,436.168396 830.059814,436.169861 825.085022,436.170166 
z"/>
<path fill="#1B1C1A" opacity="1.000000" stroke="none" 
	d="
M840.141541,344.397308 
	C841.578613,346.354980 843.181091,348.143585 843.480530,350.128723 
	C843.969788,353.372406 843.458435,356.752838 843.647522,360.059662 
	C843.877686,364.084381 842.040710,365.930420 838.148315,365.960602 
	C834.664795,365.987579 831.180969,365.960480 827.697327,365.980621 
	C824.039246,366.001770 822.152588,364.315643 822.216431,360.544861 
	C822.278259,356.896393 822.246765,353.246002 822.225647,349.596619 
	C822.203918,345.850433 824.077332,344.169128 827.779053,344.246704 
	C831.758728,344.330078 835.740723,344.298126 840.141541,344.397308 
z"/>
<path fill="#111210" opacity="1.000000" stroke="none" 
	d="
M772.530029,417.832855 
	C772.717773,422.576538 772.742004,426.905762 772.817261,431.234161 
	C772.873291,434.461792 771.564819,436.263641 768.107422,436.198578 
	C764.110474,436.123291 760.110962,436.157043 756.112793,436.177643 
	C752.997498,436.193695 751.534668,434.641937 751.548035,431.567596 
	C751.565369,427.569550 751.302856,423.547363 751.681702,419.585419 
	C751.825745,418.078949 753.348877,415.532471 754.356628,415.475861 
	C759.799622,415.170135 765.280457,415.444458 770.741028,415.683716 
	C771.314392,415.708832 771.840454,416.813965 772.530029,417.832855 
z"/>
<path fill="#FDFDFD" opacity="1.000000" stroke="none" 
	d="
M987.255676,348.309326 
	C977.935486,355.414307 968.036743,356.647095 957.912598,351.769135 
	C948.026611,347.005951 943.644104,338.199524 942.838135,327.574036 
	C942.006165,316.605988 944.333801,306.551361 953.334229,299.333405 
	C967.291992,288.139954 988.560791,293.852905 994.603821,310.676483 
	C999.482239,324.257812 998.224060,337.184235 987.255676,348.309326 
z"/>
<path fill="#FDFDFD" opacity="1.000000" stroke="none" 
	d="
M1117.632080,322.085846 
	C1109.862915,322.731049 1102.490112,323.276215 1094.537720,323.864227 
	C1094.537720,318.309113 1094.537720,313.704926 1094.537720,309.100769 
	C1094.537720,304.613525 1094.537720,300.126282 1094.537720,295.453094 
	C1101.547974,295.453094 1108.498657,294.850372 1115.291260,295.627869 
	C1121.689941,296.360260 1125.192383,300.702911 1125.953369,306.473206 
	C1126.930176,313.879395 1124.597534,318.445648 1117.632080,322.085846 
z"/>
<path fill="#FDFDFD" opacity="1.000000" stroke="none" 
	d="
M1587.563477,306.914917 
	C1601.290161,309.361237 1610.605347,317.969025 1613.017944,330.081543 
	C1616.198853,346.052429 1611.317261,359.496887 1599.650024,366.898132 
	C1589.371338,373.418579 1574.581787,372.817139 1564.378906,365.463593 
	C1553.470215,357.601318 1548.962036,340.676819 1554.056641,326.711212 
	C1559.186523,312.648895 1570.830444,305.657227 1587.563477,306.914917 
z"/>
<path fill="#FDFDFD" opacity="1.000000" stroke="none" 
	d="
M1488.043213,360.981567 
	C1477.229492,373.800842 1456.300049,374.767151 1444.104858,364.126129 
	C1431.628052,353.239441 1429.878662,331.107178 1440.289062,317.715454 
	C1449.880859,305.376740 1469.723267,302.897430 1483.103882,312.365723 
	C1495.646973,321.241180 1499.456787,342.414581 1491.036621,356.564484 
	C1490.188721,357.989166 1489.206665,359.333954 1488.043213,360.981567 
z"/>
<path fill="#FDFDFD" opacity="1.000000" stroke="none" 
	d="
M1258.992676,361.973969 
	C1249.005737,371.816376 1234.799194,374.169769 1222.343872,368.260162 
	C1210.990112,362.873260 1204.100952,349.583191 1205.540161,335.807739 
	C1206.915527,322.641602 1212.888916,312.500854 1225.893188,308.332367 
	C1238.346802,304.340393 1250.014893,306.461792 1259.351196,316.331635 
	C1270.243286,327.846191 1270.085938,348.715485 1258.992676,361.973969 
z"/>
<path fill="#FCFDFD" opacity="1.000000" stroke="none" 
	d="
M352.126221,405.267609 
	C336.841705,416.100250 320.990051,415.156433 304.691162,409.084015 
	C286.299896,402.232086 267.813446,395.633179 249.463959,388.672241 
	C233.608704,382.657471 221.385162,372.041870 213.602448,357.066803 
	C211.046005,352.147797 210.430634,345.901123 210.122238,340.196991 
	C209.412247,327.064667 209.169113,313.891510 209.228958,300.737152 
	C209.301834,284.716431 218.250137,273.756805 230.812897,265.216431 
	C242.317307,257.395599 255.356964,253.227676 268.836975,250.851715 
	C299.921051,245.372894 331.029907,239.950256 362.263428,235.437271 
	C379.017212,233.016495 396.088104,232.881668 412.946198,231.067596 
	C431.958984,229.021637 450.871063,230.267807 469.738312,232.076172 
	C480.108826,233.070160 490.523010,234.898575 500.576233,237.614166 
	C516.222107,241.840469 525.334290,253.119476 526.453125,268.897766 
	C528.311035,295.097137 529.804016,321.425293 529.295471,347.657440 
	C528.877136,369.234772 516.240723,385.052155 497.917877,395.573822 
	C490.667755,399.737061 482.166138,398.145477 476.184357,391.995239 
	C465.072510,380.570343 454.556152,368.561768 443.920807,356.680786 
	C440.935669,353.346069 438.388885,349.617401 435.661255,346.053925 
	C426.983093,334.716614 414.222412,333.031586 404.274323,343.252533 
	C396.682892,351.052246 390.977203,360.650360 383.929321,369.024902 
	C373.659088,381.228394 362.936890,393.051544 352.126221,405.267609 
M484.465363,285.980774 
	C475.590271,279.356812 465.718842,279.229767 457.955841,285.639557 
	C450.483307,291.809509 448.133820,301.982300 452.453247,310.350525 
	C456.475189,318.142487 462.923523,322.186279 471.789154,321.881073 
	C480.478363,321.581940 486.756683,317.142944 489.932190,309.307739 
	C493.347137,300.881744 491.607697,293.009277 484.465363,285.980774 
M295.025055,320.247833 
	C296.902100,333.261017 307.614044,341.105438 319.879913,338.449249 
	C331.579010,335.915741 338.332123,324.318573 335.049164,312.398926 
	C332.462311,303.006714 322.615570,296.702515 312.666412,298.068878 
	C302.103912,299.519440 295.242249,307.794983 295.025055,320.247833 
z"/>
<path fill="#F7F7F7" opacity="1.000000" stroke="none" 
	d="
M815.297241,296.685913 
	C815.360962,300.745636 813.357361,302.259064 810.009888,302.271851 
	C801.695801,302.303589 793.381531,302.301239 785.067383,302.275513 
	C781.671021,302.264984 779.842407,300.666077 779.861206,297.095703 
	C779.905823,288.615601 779.882690,280.135071 779.864380,271.654755 
	C779.857788,268.588440 781.390015,266.986786 784.406372,266.969849 
	C793.052734,266.921204 801.699585,266.937744 810.346191,266.946381 
	C813.877991,266.949890 815.372009,268.766235 815.331665,272.272003 
	C815.239929,280.252594 815.295654,288.234924 815.297241,296.685913 
z"/>
<path fill="#F6F6F6" opacity="1.000000" stroke="none" 
	d="
M709.060669,393.973633 
	C708.999512,409.818329 710.733643,407.873413 695.439270,407.972961 
	C690.113220,408.007660 684.784302,407.882874 679.461365,408.017914 
	C675.742004,408.112274 673.837769,406.649597 673.861145,402.802124 
	C673.911804,394.480225 673.896057,386.157898 673.887329,377.835724 
	C673.883667,374.306946 675.670654,372.676331 679.136475,372.682312 
	C687.458740,372.696625 695.780945,372.689850 704.103210,372.686829 
	C707.660522,372.685516 709.169739,374.490326 709.101257,378.000397 
	C709.000488,383.158356 709.066040,388.319519 709.060669,393.973633 
z"/>
<path fill="#F6F6F6" opacity="1.000000" stroke="none" 
	d="
M675.115112,300.914185 
	C674.504272,294.820038 674.144958,289.051605 673.941284,283.277710 
	C673.806213,279.450073 673.864990,275.614410 673.890503,271.782684 
	C673.911987,268.554779 675.466858,266.892731 678.820923,266.911682 
	C687.317810,266.959686 695.815369,266.963623 704.312195,266.905792 
	C707.749817,266.882385 709.093567,268.655609 709.087952,271.865448 
	C709.073059,280.362549 709.283630,288.869202 708.895203,297.348724 
	C708.817749,299.038635 706.531799,301.984589 705.170776,302.039673 
	C695.862854,302.416229 686.529724,302.192108 677.205444,302.096313 
	C676.611694,302.090240 676.023560,301.536530 675.115112,300.914185 
z"/>
<path fill="#1E8995" opacity="1.000000" stroke="none" 
	d="
M484.731934,286.223724 
	C491.607697,293.009277 493.347137,300.881744 489.932190,309.307739 
	C486.756683,317.142944 480.478363,321.581940 471.789154,321.881073 
	C462.923523,322.186279 456.475189,318.142487 452.453247,310.350525 
	C448.133820,301.982300 450.483307,291.809509 457.955841,285.639557 
	C465.718842,279.229767 475.590271,279.356812 484.731934,286.223724 
z"/>
<path fill="#1E8995" opacity="1.000000" stroke="none" 
	d="
M295.014221,319.809692 
	C295.242249,307.794983 302.103912,299.519440 312.666412,298.068878 
	C322.615570,296.702515 332.462311,303.006714 335.049164,312.398926 
	C338.332123,324.318573 331.579010,335.915741 319.879913,338.449249 
	C307.614044,341.105438 296.902100,333.261017 295.014221,319.809692 
z"/>
</svg>